<?xml version="1.0" encoding="UTF-8" standalone="no"?>
<!-- Generator: Adobe Illustrator 19.2.1, SVG Export Plug-In . SVG Version: 6.00 Build 0)  -->

<svg
   xmlns:dc="http://purl.org/dc/elements/1.1/"
   xmlns:cc="http://creativecommons.org/ns#"
   xmlns:rdf="http://www.w3.org/1999/02/22-rdf-syntax-ns#"
   xmlns:svg="http://www.w3.org/2000/svg"
   xmlns="http://www.w3.org/2000/svg"
   xmlns:sodipodi="http://sodipodi.sourceforge.net/DTD/sodipodi-0.dtd"
   xmlns:inkscape="http://www.inkscape.org/namespaces/inkscape"
   version="1.1"
   id="Warstwa_1"
   x="0px"
   y="0px"
   viewBox="0 0 436.20001 108.6"
   xml:space="preserve"
   inkscape:version="0.91 r13725"
   sodipodi:docname="logo.svg"
   width="436.20001"
   height="108.6"><metadata
     id="metadata75"><rdf:RDF><cc:Work
         rdf:about=""><dc:format>image/svg+xml</dc:format><dc:type
           rdf:resource="http://purl.org/dc/dcmitype/StillImage" /><dc:title></dc:title></cc:Work></rdf:RDF></metadata><defs
     id="defs73" /><sodipodi:namedview
     pagecolor="#ffffff"
     bordercolor="#666666"
     borderopacity="1"
     objecttolerance="10"
     gridtolerance="10"
     guidetolerance="10"
     inkscape:pageopacity="0"
     inkscape:pageshadow="2"
     inkscape:window-width="1855"
     inkscape:window-height="1176"
     id="namedview71"
     showgrid="false"
     inkscape:zoom="0.82684378"
     inkscape:cx="218.2"
     inkscape:cy="8.85"
     inkscape:window-x="65"
     inkscape:window-y="24"
     inkscape:window-maximized="1"
     inkscape:current-layer="g5"
     fit-margin-top="0"
     fit-margin-left="0"
     fit-margin-right="0"
     fit-margin-bottom="0" /><style
     type="text/css"
     id="style3">
	.st0{fill:#000066;}
	.st1{fill:#FF6200;}
</style><g
     id="g5"
     transform="translate(-0.1,0)"><path
       class="st0"
       d="m 243.1,79 0,20.8 c -11.7,5.9 -22.7,8.8 -33.6,8.8 -30.5,0 -48.8,-17.9 -48.8,-40.5 0,-24.5 20.9,-44.7 47.6,-44.7 6.6,0 11.6,1.2 16.8,2.9 3.7,1.2 6,2.5 8.4,2.5 2.1,0 2.6,-3.4 2.9,-5.4 l 2.9,0 2.6,28.1 -3.5,0 c -1.4,-5.6 -4.1,-10.1 -7.6,-13.3 -5.5,-5.6 -13,-8.5 -21.7,-8.5 -18.3,0 -29,14.5 -29,36.3 0,21.5 13,36.1 30.4,36.1 5.1,0 9.8,-1.2 15.6,-3.8 l 0,-21.4 c 0,-6.9 -1.1,-9.5 -11,-9.5 l 0,-3.2 36.8,0 0,3.2 c -9.1,0 -8.8,3 -8.8,11.6 m -101.3,-34.3 0,62.4 -4.8,0 -62.4,-64.4 c 0.3,1.8 0.3,3.2 0.3,5 l 0,39.2 c 0,12 0,16.4 11,16.4 l 0,3.2 -29.3,0 0,-3.2 c 11.1,0 11.1,-5.3 11.1,-16.4 l 0,-44.7 c 0,-6.6 0,-13.9 -11.7,-13.9 l 0,-3.1 27.6,0 51.3,52.7 c -0.3,-1.5 -0.3,-2.3 -0.3,-4.4 l 0,-28.8 c 0,-11.6 0.3,-16.5 -10.7,-16.5 l 0,-3.1 29.3,0 0,3.1 c -10.8,0 -11.4,4.7 -11.4,16.5 m -141.7,61.8 0,-3.2 c 7,0 12,-0.6 12,-10.8 L 12.1,39 C 12.1,28.5 8.3,28.2 0.1,28.2 l 0,-3.1 41.2,0 0,3.1 c -8.4,0 -12,0.3 -12,10.8 l 0,53.5 c 0,10.2 4.4,10.8 12,10.8 l 0,3.2 -41.2,0 z"
       id="path7"
       inkscape:connector-curvature="0"
       style="fill:#000066" /><g
       id="g9"><path
         class="st1"
         d="m 369.3,98 c -0.6,0 -0.9,1.5 -0.9,2.1 0,2.6 1.2,4.7 2,6.4 l 2.6,0 c -0.3,-2.3 -0.9,-4.4 -0.9,-7 0,-1.5 0.9,-3.2 1.2,-4.1 l -2.9,0.3 c 1.2,0.6 1.2,2.1 1.2,2.3 0,0.9 -0.6,1.8 -1.2,2.3 -0.5,-0.5 -0.5,-1.4 -1.1,-2.3 z"
         id="path11"
         inkscape:connector-curvature="0"
         style="fill:#ff6200" /><path
         class="st1"
         d="m 318.4,99.5 c -0.9,2.9 1.8,4.7 2.1,7 l 3.5,0 c -1.5,-2.6 -1.8,-6.7 -1.8,-7.6 0,-1.5 0,-3.5 0.9,-4.9 l -3.2,0.6 c -0.9,1.1 -1.2,1.7 -1.2,2.3 l 1.5,-0.6 c 0.3,0 0.6,0.6 0.9,1.2 -0.4,1.4 -2.1,1.4 -2.7,2 z"
         id="path13"
         inkscape:connector-curvature="0"
         style="fill:#ff6200" /><path
         class="st1"
         d="m 425.2,97.4 c 7,-6.7 11.1,-17.8 11.1,-28.5 0,-12.7 -5.3,-25.6 -14.7,-34.9 -4.1,-4.1 -8.5,-6.1 -12,-10.1 -1.8,-1.7 -3.1,-3.5 -4.3,-5.8 -1.5,-1.5 -2.4,-2.3 -4.1,-3.2 0.3,0.9 0.6,1.8 0.9,2.6 l -0.3,0 c -1.5,0 -2.9,-0.9 -4.1,-1.8 l 1.2,-1.2 C 398.6,14 397.7,14 397.1,14 c -4.7,-0.8 -9,1.7 -13.5,2.6 l 0,0.6 c 2.9,0.9 3.5,4.4 5.1,6.1 l 1.7,0 c 0.6,0 1.5,0.6 2.1,0.6 0,-0.6 -0.6,-1.7 -0.6,-1.7 0.6,-0.6 1.2,-0.6 1.8,0 1.5,0.9 3.5,-0.6 5,1.7 -1.8,0 -3.5,0 -5,0.9 0,0.3 0.9,0.8 0.6,1.4 -1.5,-0.6 -3.2,0 -3.8,-1.1 l -0.3,0.2 c 1.8,2.1 4.4,3.7 7,4.6 3.8,0.6 7,-1.2 10.7,-0.3 13.2,6.5 22.6,21.5 22.6,36.6 0,21.5 -12.3,30 -20,30 -1.5,0 -3.7,-0.9 -4.6,-1.7 0.9,-3 1.4,-6.5 1.4,-11.8 0,-12.4 -4.9,-25.9 -11.7,-32.8 -3.2,-3.2 -6.7,-5.9 -10.3,-5.9 -1.8,0 -3.5,0 -4.7,1.5 -1.5,1.2 -2.4,3.5 -2.1,5 -2.3,1.8 -6.1,2.6 -9.1,2.6 -3.2,0 -7.3,-1.2 -10.9,-4.1 l 0,-4.4 c -0.8,-0.3 -3.8,-2.1 -2.3,-3.4 0.9,0.3 1.5,0.8 1.8,1.1 -0.3,-1.9 -0.3,-4.3 -1.8,-6 -0.6,0 -1.5,0 -2.3,-0.6 -0.9,-0.9 -1.8,-2 -1.8,-3.5 0.9,1.5 2.3,0.9 3.2,1.8 -1.5,-3.5 -0.9,-5 -3.5,-10.1 -0.6,-2.6 -3.2,-4.1 -5,-5.8 -0.9,-0.6 -1.2,-1.5 -2.2,-1.5 -1.2,-0.3 -1.2,-1.8 -1.2,-2.6 0.3,0 1.2,0.5 1.7,0.8 -1.7,-4 -2.9,-8.3 -6.7,-10.7 l -0.9,0.6 -4.7,0 c 0.6,-0.6 1.8,-0.9 2.6,-1.5 -0.9,-0.9 -1.5,-1.2 -3.2,-1.2 -0.8,0.3 -1.9,1.2 -3,1.2 l -0.3,0 c 0,-0.9 -0.3,-2.1 1.4,-2.6 -1.7,-0.3 -3.2,-0.3 -5.2,0 -0.3,1.5 -1.2,2.3 -1.2,3.5 -0.9,0.6 -1.2,1.5 -2.1,2.3 0,-1.8 0.9,-3.5 1.2,-5.3 -1.2,0.3 -2.6,1.2 -3.2,1.2 -2.3,-1.2 -5.3,-2.3 -6.4,-2.3 1.8,1.2 0.9,3.2 1.2,4.7 l -1.2,-0.6 c -0.3,-1.2 -1.8,-2.1 -2,-3.5 -1.8,0 -2.9,0.6 -4.4,1.5 l 0,0.3 c 0.9,0 2.1,0.9 2.6,1.8 -2,0 -3.5,-0.9 -5.6,-0.9 0,0 0,-0.3 -0.3,-0.3 -0.8,0.3 -1.6,1.2 -2.1,1.8 -2.1,1.8 -3.5,3.2 -4.4,5.8 0.6,0 1.5,0 1.8,0.3 -1.2,0.3 -1.8,1.8 -2.9,2.1 l 0,4.3 c -0.9,0.9 -2,1.8 -2.6,3.5 -1.5,4.6 -1.8,9.8 -1.8,15.7 -0.3,1.2 -0.9,1.5 -1.5,1.8 l 0,4.5 c 0,0 1.8,-1.6 2.6,-2.2 l 0,3.7 c -1.2,0 -2,1.5 -2,2.3 0,1.2 0.3,2.3 0.3,3.5 0,0.6 0,0.6 0.3,1.2 0,-0.6 0.6,-1.2 1.5,-1.5 0,0 0.6,-0.6 1.8,-0.6 -0.9,0.9 -1.2,2.1 -1.8,3.2 l -0.9,0.9 c 0,0 -0.3,0.6 -0.3,0.9 1.2,6 2.9,11.3 5.3,17 -2.3,3.8 -5,11.1 -6.7,18.1 -1.5,-1.5 -3.5,-1.7 -5.3,-1.7 -1.6,0.3 -3.4,0.9 -4.6,2.6 -1.8,-0.9 -4.1,-0.6 -5.2,0.6 -2.4,2.1 -2.4,3.2 -2.4,5 -0.6,0.6 -1.8,2.1 -1.8,4.1 0,2.6 0.3,4.4 1.8,6.7 l 43.9,0 c -0.3,-0.9 -0.9,-2 -1.5,-2.6 -0.9,-1.8 -0.3,-4.1 -0.3,-5.9 0.9,-1.7 1.8,-3.4 2.9,-4.9 0.3,-0.9 0,-0.9 0.3,-1.2 l 2.1,-0.3 c 1.2,0 2,-0.9 3.5,-0.9 0.9,1.2 0.9,-0.9 2.4,-1.5 3.2,-0.6 6.2,0 7.9,2.3 0,0.3 0.3,0.3 0.3,0.6 l -1.5,0 c -1.6,-0.6 -3.6,-1.5 -5.6,-0.6 0,0.6 -0.3,0.6 -0.3,1.5 l 0,1.5 c 1.2,0 2.1,1.1 3.2,1.7 0.5,-0.9 2.1,-1.7 3.3,-1.7 1.5,0 3.5,0.8 3.5,3.2 l 0,3.2 c 1.2,1.2 2.6,1.5 4.1,2 -0.6,1.2 -1.5,1.2 -2.3,1.2 l -2.3,0 c -0.3,-0.3 -0.9,-0.3 -0.9,-1.2 -0.9,1.2 -1.5,2.4 -2.1,3.5 l 33.9,0 c -0.6,-1.2 -1.2,-2 -1.5,-2.6 -0.6,-1.8 -0.6,-4.1 -0.6,-5.9 l 3.2,-4.3 c 1.7,0 3.2,-0.6 6.4,-0.9 0.6,-0.9 0,-1.2 2.6,-1.2 2,0 3.5,0.3 4.1,0.6 0.3,0.6 0.3,0.6 0,1.2 -0.6,0.6 -1.7,-0.6 -2.6,-0.3 -0.6,0.6 0.3,0.9 0.3,1.5 0.6,0.5 -2.6,-0.6 -2.6,-0.6 0,0 -0.6,1.7 -0.9,2.3 0,0 1.2,1.2 1.8,1.7 0.6,0.9 -0.9,1.8 -0.9,2.6 -0.6,-0.3 -1.8,-1.2 -1.8,-0.9 -0.6,2.4 0,4.4 -0.3,6.7 l 3.2,0 0.3,-5 c 0.3,-2.9 3.8,-8.1 5.9,-8.1 1.2,0 2,0.6 2.9,1.2 0.5,1.1 1.9,1.7 1.9,2.3 0,0.6 -0.8,0.9 -2.2,0.9 -0.6,0 -0.6,-0.9 -1.4,-1.5 l -1.8,1.7 c 0,0 2,1.8 2,2.9 0,1.5 -0.3,2 -1.2,2.9 l -1.8,-3.5 c -0.9,0 -2.3,1.8 -2.3,2.6 0,1.2 -0.6,1.8 -0.6,3.5 l 17.9,0 c 2,0 3.8,-0.6 5.8,-1.8 l 3.5,0 c 7.8,0.2 13.4,-1.8 18.6,-7.1 z M 393.4,19 c -0.6,-0.9 -1.5,0 -2.1,0 -0.6,0 -0.9,0 -2,-0.9 1.7,0 2.6,-0.9 4.1,-1.5 1.2,0.9 2.3,1.2 3.2,2.3 l -3.2,0 z m 9.4,4.4 c -0.9,-1.2 -2,-2.6 -3.2,-2.6 0.9,0 2.1,-0.9 3.5,-0.9 0.6,1.5 1.8,2.3 2.1,3.5 l 0.3,1.8 c -0.7,-1.3 -1.9,-1.8 -2.7,-1.8 z m -47.9,38.2 -1.5,0.6 c -3.2,0 -4.7,-0.9 -6.1,-2.1 1.2,0 2.6,-1.5 2.6,-1.5 1.5,1.5 3.6,2.7 5,3 z m -15.1,-3.3 c -1.5,0.3 -2.6,-1.2 -4.1,-1.8 -0.6,-1.6 -0.6,-3.4 -1.2,-4.2 1.2,0.9 3.8,0.9 3.2,3.5 0,0.8 1.2,1.4 2.1,2.5 z m 0,9.7 c 0.9,0.3 2.3,1.2 3.2,1.8 l -0.9,0 c -3.2,1.1 -5.9,-0.9 -8.5,-2.6 1.5,-0.6 3.5,-0.9 5.3,-0.9 l 0.9,1.7 z m 0.6,-4.7 c 1.2,-0.9 2.6,-0.9 3.2,-1.2 1.2,1.2 2.2,3.2 4.3,4.4 -1.2,0 -3.1,0 -4.3,-0.9 -1.8,-0.8 -2.3,-1.4 -3.2,-2.3 z m -3.2,18 c 0,-0.9 0.6,-1.7 1.8,-2.3 1.8,0.6 3.2,-3.2 5,-1.2 0.9,0.3 1.7,0.3 2.2,0.3 2,0.9 2.6,2.6 3.5,4.1 -1.5,0 -2.6,0 -3.5,-1.5 -0.3,0 -0.8,-0.9 -1.1,-0.3 -1.5,1.2 -2.9,-0.9 -4.7,-0.6 -0.9,0.9 -1.7,1.5 -3.2,1.8 l 0,-0.3 0,0 z m 14.5,-30.7 c -0.3,1.2 -1.5,0 -1.7,0 l -2.6,0 c -0.3,-0.6 -0.6,-0.9 -0.6,-1.5 1.2,-0.3 2,-0.9 2.9,-0.3 0.5,0.9 1.1,1.8 2,1.8 z m -5.6,-12.5 c 0.6,1.2 0.6,1.8 1.2,2.3 1.2,-0.6 1.2,0.9 1.5,1.2 0.3,0.8 0.9,1.6 0.9,2.5 -1.8,0 -2.6,-0.9 -3.5,-2.5 -0.1,-0.8 -0.3,-2 -0.1,-3.5 z m -2.2,14.2 2.8,2.6 c -1.7,0 -3.7,0.9 -4.6,-0.9 0.6,-0.2 1.2,-1.1 1.8,-1.7 z m -0.3,-22.1 c 0,0.3 -0.6,2.9 -0.6,2.9 l -2.3,0.6 1.5,-6.3 c 0.5,1.1 1.4,2.2 1.4,2.8 z m -41.1,-21 c 0.5,0 1.3,-0.3 1.6,-0.9 1.4,-0.3 2.3,-1.8 4.1,-0.9 1.2,0 2.3,0.6 3.2,0.9 0,0.6 0,0.9 0.6,1.5 1.8,0 1.8,1.7 2.6,3.2 0.9,0.3 1.7,0.3 2.3,0.3 1.8,0.5 3.2,0.5 3.8,1.3 2.3,-1.3 4.7,-1.6 7.3,-1.3 0.3,-0.9 0.9,-2.1 1.2,-3.5 0.3,0.9 0.3,0 0.9,0 1.1,-0.9 2.4,-2.3 4.4,-1.8 1.2,0.9 3.2,0.3 4.4,1.8 0.9,1.1 1.5,2.9 2.3,4.3 -0.9,1.7 0,4.1 -1.8,4.9 l -1.8,1.8 c -0.6,0 -0.6,0.6 -1.5,0.6 0.9,2 0.3,4.9 -0.6,6.9 0.6,-0.2 1.5,-0.2 1.5,-1.1 0.3,0.3 0,0.8 0,1.1 l 0,0.8 c 0,1.5 -0.9,2.9 -2.1,4.1 -0.6,1.8 -2,4.1 -3.9,4.4 l 0,0.6 c 4.2,0 7.8,1.2 11.9,3.2 l 0,1.9 c -3.5,-1.9 -7.3,-3.4 -11.6,-3.7 0,0.9 0,1.7 -0.3,2 3.4,1.6 6.6,3.1 9.5,5.7 l 0,2.7 c -2.9,-2.9 -6.2,-5.9 -9.8,-6.7 -0.3,0.6 -1.4,1.2 -1.7,2.3 -2.1,-1.5 -4.4,-2.9 -6.8,-3.2 -0.9,0 -1.5,-3.1 -1.5,-3.1 1.5,-0.6 2.4,-1.5 2.9,-2.9 l 1.2,0 c 0.9,0 0.9,-0.6 0.9,-1.5 0,-1.8 -3.8,-1.8 -5.6,-1.8 -2.1,0 -3.5,0 -4.7,0.9 -0.6,0 -0.3,0.9 -0.3,1.5 0,0.3 0.9,0.9 0.9,0.9 0.6,0 1.2,-0.6 1.8,-0.6 -0.3,1.8 0.3,2.6 2,3.5 l -0.3,2.8 c -3.5,0 -5.9,1.4 -8.5,2.6 -0.9,-0.6 -1.5,-1.5 -2.1,-2.3 -3.5,1.2 -9.4,5.8 -9.4,5.8 l 0,-2 c 2.6,-2.3 5.9,-3.5 8.5,-4.9 l 0,-2 c -1.2,-0.6 -2.3,0 -3.5,0 -2.5,0.3 -5,1.4 -6.8,2.8 0,-0.8 -0.3,-2 -0.3,-2 3.2,-1.8 7.1,-3.2 10.9,-2.6 l 0,-1.2 c -0.3,-0.6 -0.3,-1.5 -0.9,-1.5 -1.8,-1.8 -3.5,-4.4 -3.5,-6.2 l 1.2,-0.6 c -0.6,-1.7 -1.2,-6 0,-7.5 -1.7,-0.9 -3.3,-2.3 -3.9,-3.5 -0.6,-1.5 -1.2,-2.3 -1.5,-4 1.4,-1.5 1.9,-2.1 2.8,-3.8 z m 27,54.1 c -1.5,-0.9 -4.1,-1.2 -3.5,-2.9 0.6,-1.5 1.5,-1.8 2,-2.3 0.3,2 0.6,3.5 1.5,5.2 z m -18.1,-8.3 -0.9,3.6 c -0.9,-1.7 -1.8,-3.4 -2,-5.4 l 2.9,1.8 z m -3.9,4.5 c -1.8,-0.6 -3.8,-2.3 -4.6,-3.7 -0.5,-1.2 -0.8,-2.6 -0.8,-3.5 1.1,0 1.9,0.9 2.1,1.5 l 0,0.3 c 1.6,1.8 3,3.1 3.3,5.4 z m -3.2,3.5 c 0,1.2 -0.5,2.6 -1.9,4.1 -0.3,0.3 -1.1,0.9 -1.1,0.9 0,-1.8 0.8,-3.2 0.8,-4.7 0.9,-0.3 1.7,-0.9 2.2,-0.3 z m 2.9,3.5 c 0.3,-0.3 0.6,0 1.2,0 l -1.2,4.3 c -1.5,1.1 -3.5,0.6 -5.1,0.6 2.2,-0.6 4,-3.1 5.1,-4.9 z m -10,-45.8 c 0.6,-0.9 0.9,-1.8 1.8,-2.6 l 0,3.5 -2,0.6 0.2,-1.5 z m 0,5.9 2.3,-0.9 -1.5,1.8 c 0.3,2.8 -0.9,4.9 -0.9,7.5 l -1.5,-4.7 c 0.5,-1.2 0.8,-2.3 1.6,-3.7 z M 297,60.1 c 0.3,-1.2 1.2,-1.8 1.4,-2 0.9,0.3 1.5,0.3 2.6,0.6 -1.5,1.5 -2.9,2.1 -3.5,3.8 0,-0.9 -0.3,-1.8 -0.5,-2.4 z m -18.7,38.8 c -0.3,0 -1.2,-0.9 -2.1,-0.9 -0.8,1.8 0,2.9 0,5 0,0.9 -0.3,1.8 -0.3,1.8 -0.5,0 -1.6,-1.2 -1.9,-2.3 l 0,-4.7 2.4,-3.2 c 1.9,1.1 2.5,2.8 1.9,4.3 z m 6.7,0 c -0.3,-1.2 -1.1,-2.6 -2.5,-2.6 -1.2,2.3 -1.5,3.2 -0.3,6.7 -0.9,0.9 -1.5,1.2 -2.6,1.8 -0.6,-1.2 -0.6,-3.2 -0.6,-4.4 0,-2.1 0.3,-4.1 0.9,-5.8 0.9,-0.9 1.5,-2.4 2.3,-3 l 3.1,0 c -1.4,0 -1.4,1.2 -1.4,2.1 0.8,0.3 2,0.6 2,2 -0.1,1.1 -0.4,2.3 -0.9,3.2 z m 7.3,4.1 c 0,-1.5 0.9,-3.2 0.9,-5 0,0 -1.2,-1.2 -2.4,-1.2 -0.9,0.6 -0.9,1.2 -1.2,2.1 -0.9,1.8 -2.6,3.5 -2.9,5.3 -0.3,0 -0.3,-0.3 -0.3,-0.3 0,-2.9 0.3,-7.9 2,-9.9 1.5,-1.8 2.6,-1.8 4.4,-2 l 1.5,0.3 -1.2,1.8 c 1.2,0.6 2.9,1.7 2.9,3.5 0.1,2.2 -3.7,5.4 -3.7,5.4 z m 11,-5.6 -1.9,-5.2 c -2.4,-2.1 -5,-2.4 -6.5,-3.6 -1.2,-0.3 -1.2,0.6 -1.8,0 0,-0.6 0,-1.5 0.9,-2.3 l 1.7,0 1.8,0.9 c 0.9,0.9 2.9,0.9 2.9,2.6 0,0.3 -0.3,0.6 0.6,1.8 l 2.7,0.6 0.3,2.4 -0.7,2.8 z m 3.1,-5.2 c -0.6,-0.6 0,-2.1 -0.9,-3 0,-0.6 0.6,-0.9 0.3,-1.2 -0.3,-0.6 -3.6,-1.8 -3.6,-1.8 -1.1,-0.9 -2.6,-1.8 -3.8,-2.9 -1.2,-0.3 -2,0.3 -3.5,0.6 l 0,-0.6 c 0.6,-1.2 0.6,-2.6 2.3,-2.6 0.9,0 2,0 2.6,0.9 1.2,0 1.8,1.2 2.6,1.5 1.3,1.4 2.5,2.1 3.3,2.6 0,0.9 0.3,1.5 0.9,1.8 1.8,0 1.2,1.7 1.8,2.9 l -2,1.8 z m 3.2,-6.5 c -0.6,-2 -2,-4.1 -3.8,-4.1 -0.9,-0.9 -1.7,-1.8 -2,-2.6 -0.8,-0.9 -1.6,0 -2.7,-0.9 -1.2,0 -2.6,0 -3.8,0.9 l 0,-0.9 2,-2.3 c 2.1,0.3 4.5,0 5,1.5 1.5,0.9 2.9,1.8 3.2,2.4 l 0,0.9 c 0.6,0.3 1.8,0.6 2.3,0.9 0.1,0.7 -0.2,4.2 -0.2,4.2 z m 3.2,-14.3 c -0.9,0 -2.4,0.6 -4.1,0 0.9,-0.6 1.8,-0.8 2.9,-1.6 l 2.3,-2.3 2.3,0 c -0.8,1.7 -1.6,3.3 -3.4,3.9 z m 0.9,-13.1 c 0.9,0 1.8,0 2.6,0.6 0,1.5 0.6,2.7 0.6,4.4 -1.7,-1.7 -3.2,-3.2 -3.2,-5 z m 0.9,17.5 c 0.3,-0.9 1.1,-1.2 1.7,-2 0.6,-0.9 1.8,-2.3 2.1,-3.2 1.5,-0.8 2.1,-0.8 3.2,-0.8 -0.3,1.6 -1.2,2.2 -2.6,4.2 -0.9,0.6 -2.7,0.9 -4.4,1.8 z m 4.1,5.5 -1.8,-2.3 4.4,0 0.9,1.7 c -1.2,0.9 -2.1,0.9 -3.5,0.6 z m 2,-17.1 -0.6,-2.9 c 0.9,-0.6 1.8,-1.2 2.9,-2.7 0.1,2.1 -0.2,4.7 -2.3,5.6 z m 3.5,-15.1 c -0.3,0 0,0.9 -0.3,0.9 0,0.6 -0.6,1.8 -0.6,2.9 -0.6,0.3 -1.8,0.9 -2.9,0.3 l 0,-0.9 c -0.3,-0.6 -0.3,-1.8 -0.3,-2.3 l -0.3,-0.3 c -0.9,0.3 -0.9,0.9 -0.9,1.5 -0.3,0.6 -0.9,1.2 -0.9,2 -1.2,0 -1.8,-0.3 -2.6,-0.9 l 0,-2.6 c 0,-0.6 0,-0.6 -0.3,-0.6 l -1.5,1.5 c -1.2,-0.9 -1.5,-3.2 -1.5,-4.7 4.7,-2.6 10.5,-1.8 14.1,-0.3 0.6,0.3 1.2,0.3 1.7,0.6 -0.3,1.8 -0.9,4.4 -2.6,5.6 0.1,-1.2 -0.5,-1.8 -1.1,-2.7 z m 5.3,31.4 c -0.3,0 -2.3,-0.9 -2.9,-1.5 -0.3,-0.9 -0.3,-1.8 -0.3,-1.8 l 2.3,0 1.5,3.2 -0.6,0 z m 0,-8 c -1.8,-1.4 -2.9,-3.1 -4.7,-5.4 l 4.7,0.9 c 0.9,0.6 2.5,2.5 3.3,3.4 -0.6,0.6 -2.2,1.1 -3.3,1.1 z m 3,-10.9 c -1.6,-2.7 -0.8,-5 0,-6.9 0.6,1.7 0.9,3.4 1.1,4.8 0.3,1.2 2.1,1.8 2.6,2.6 -1.1,0.3 -3.1,0.9 -3.7,-0.5 z m 1.1,25.9 1.5,-3.5 c 1.2,0 2.1,-0.6 2.6,-0.6 1.2,-0.3 2.1,-0.3 2.9,-0.3 l 0,0.3 c 3.2,0 6.9,-0.3 9.3,2.3 l 0.3,2.4 c -1.2,-0.9 -2.9,-0.9 -3.5,-2.4 -1.1,-0.3 -1.9,-0.3 -3.4,-0.3 -1.2,0.3 -2.6,0.3 -3.8,0.3 -0.3,0 0,-0.3 -0.6,-0.6 -1.7,0.6 -3.5,0.6 -5.3,2.4 z m 9.4,10.5 -0.9,0.9 c -0.9,-0.9 -0.3,-3.2 -1.8,-3.5 -1.5,0 -2.6,-1.4 -3.2,-1.7 l 1.2,-0.6 c 0,0 0.6,-0.3 1.2,0 0.6,0.6 1.2,0.9 1.2,1.5 0.6,0.8 1.5,0 2.1,0.8 0.2,0.9 0.5,2 0.2,2.6 z m 9,-0.6 c -0.6,-1.8 -1.2,-4.3 -3.2,-4.3 -0.3,-1.2 -0.6,-1.5 -1.8,-2.4 l -2.2,-0.3 c 0.3,1.2 1.9,1.2 0.8,2.7 1.1,0.9 2,0.9 2.6,2.3 0.6,0.9 0,2.1 0.3,2.6 l -1.8,0.9 c 0,-1.5 0.3,-4.3 -1.7,-4.9 -1.7,0.6 -2,-1.8 -3.2,-2.4 -0.6,0 -0.6,-1.5 -1.5,-0.9 -1.5,0.9 -3.2,0 -4.7,0.9 l 1.5,-2.3 c 1.2,-0.9 2.3,-0.6 3.5,-0.9 l 2.3,-0.3 c 2.3,0 4.3,1.2 6.6,2 1.2,0.6 1.7,1.5 1.7,2.7 0.6,0.3 1.8,0.3 1.8,1.2 -0.1,0.6 -0.7,2.3 -1,3.4 z m 4.1,-4.3 c -0.6,-0.9 -0.9,-1.5 -1.5,-1.5 0.9,-3.2 -0.9,-5.9 -1.5,-8.5 l 0,-0.9 c 0.9,1.5 3.2,2.9 2.9,4.4 0.3,2.6 0.3,5 0.3,6.5 l -0.2,0 z m -2.9,-36.2 2.3,-1 c 0.9,0.7 2.1,1 2.6,1.3 -0.8,0.9 -3.2,1.1 -4.9,-0.3 z m 19.6,4.7 c 0.6,0.6 1.2,0.9 1.7,1.7 l 0,2.3 c -2.6,-1.5 -4.1,-4.1 -6.4,-6.7 2.4,0 3,2.4 4.7,2.7 z m -13,0.6 c 0.8,0.9 1.9,2.1 1.9,2.9 0,0.9 -0.6,1.2 -1.1,1.8 0,0 -1.1,-1.5 -1.1,-2.1 0,-1.2 0,-1.8 0.3,-2.6 z m 2.5,21.8 c 0,-1.8 -0.3,-3.2 -1.5,-4.4 0,-0.6 0.8,-0.6 0.3,-1.5 0,0 -1.6,-0.9 -1.6,-2.1 0,-1.2 1.1,-2.1 1.6,-2.9 0,-0.3 1.2,0.6 1.2,2.3 0,0.3 0,1.2 -0.3,1.8 -0.3,0.9 1.8,0.9 1.8,1.8 0,1.7 -1.2,3.2 -1.5,5 z m 3.2,-12.6 c 0,0.6 -0.9,1.1 -1.2,1.1 0,0 -1.5,-1.4 -1.7,-2.8 -0.3,-1.2 0.9,-3.2 0.9,-3.2 0.3,0 0.6,0.6 0.9,0.6 0.3,0.3 0,1.2 0.3,2 0.8,0.7 1.4,1.7 0.8,2.3 z m 2.6,15.2 c 0.6,-1.5 0.6,-4.4 0,-4.4 -0.6,-0.3 -1.8,0 -1.8,-0.6 0,-0.9 0.3,-2 0.3,-2.6 0,-1.2 -0.9,-1.8 -0.9,-2.3 0,-1.8 2.1,-2 2.6,-3.2 0.3,1.2 0.3,2.3 0.3,3.8 0,0.6 0.9,2.4 0,3.8 0,0.9 1.7,0.3 1.7,1.2 0.2,1.4 -1.6,3.1 -2.2,4.3 z m 4.7,-7 c -0.9,0 -0.9,-0.6 -0.9,-1.8 -0.3,-1.8 -0.9,-3.2 -1.5,-5 -0.6,-2.3 -2,-4.2 -3.2,-6.9 -0.3,-1.2 -1.8,-1.8 -2.9,-2.6 1.5,0 2.9,0 4.1,1.2 0,0.6 0.3,0.9 1.2,1.8 2,0 1.5,2.6 3.2,3.8 -0.9,0.8 -1.2,1.3 -1.8,1.9 0.9,0.6 1.8,0.9 2.1,1.8 0,1.7 -0.3,3.7 -0.3,5.8 z m 4.1,-2.9 c -0.6,-1.8 -1.8,-3.5 -2.4,-5.2 0,-0.3 -0.3,-0.3 0.3,-0.6 0.3,0 1.5,0 1.5,0.3 0.3,0.6 0.9,1.4 0.9,2.3 0,1.1 -0.6,2 -0.3,3.2 z M 392.5,68 c -0.6,-0.6 0,-1.8 -1.5,-1.8 -0.6,0 -1.5,0.9 -1.5,0.9 -0.5,0.3 -2.2,-0.9 -2.2,0 0,1.5 -1.1,2 -2.6,2 -0.6,0 -1.2,0 -1.8,-0.3 l 0,-2.8 c 3.8,0 3.5,-1.2 5.1,-1.2 1.1,0 1.9,0.6 2.8,0.6 1.5,0 0.6,-0.6 2.1,-0.6 1.5,0 2,1.2 2.9,1.5 0,0.9 0.9,2.1 0.9,3.2 -1.9,0 -3.9,-0.6 -4.2,-1.5 z m 1.8,7.8 c -0.9,-0.3 -2.9,-0.6 -2.9,-1.5 0,-1.2 -0.6,-1.5 -2,-1.5 -1.1,0 -1.9,0.3 -3.6,0.9 0,0 -0.9,-1.2 -1.2,-2.3 0.6,-0.3 2.9,-0.8 3.9,-0.8 2,0 4,0 4,0.8 0,1.1 1.8,1.4 1.8,4.4 z M 391,59.5 c 0.9,0 1.5,-0.6 2.1,-0.6 1.5,0 2.6,2.4 2.9,4.1 -2.3,-1.5 -5.9,-2.4 -7.8,-2.4 -1.1,0 -4.5,1.5 -5.7,2.6 l -0.6,-2.6 c 1.8,-0.3 1.8,-1.8 2.9,-1.8 0.9,0 2,-0.3 2.8,-0.3 0.8,0 1.4,-0.6 1.6,-0.6 1.5,0.2 1,1.6 1.8,1.6 z m -8.8,-3.6 c 0.9,-0.9 2.3,-2.1 3.5,-2.1 2,0 3.6,1.5 3.6,2.8 -1.6,0 -1.9,-0.2 -3,-0.2 -1.5,0 -3.2,0.5 -4.1,2 -0.6,-1.2 -0.3,-1.8 0,-2.5 z m 0.9,-7.7 c 1.2,-0.6 1.8,-0.3 2.3,0 0,1.8 2,0.9 3.1,1.5 0.5,0.9 0.8,1.5 1.1,2.6 -1.9,-0.6 -3,-1.5 -4.7,-1.5 -0.6,0 -3.2,0.9 -3.5,1.5 -0.9,-1.1 0.5,-3.5 1.7,-4.1 z m 5.4,44 c -1.4,-0.6 -2.2,-0.9 -3.9,-0.9 0,-1.2 -0.9,-2.6 -1.5,-2.6 -1.8,0 -1.5,1.2 -2.9,1.2 l 2.6,-2.6 c 0.3,-0.6 0.3,-0.6 0.9,-0.6 0.9,0.6 1.2,0.9 2,0.9 0,0.6 0,0.9 -0.3,1.7 0.9,0.6 1.4,-0.3 2,0.6 0.8,0.3 1.6,0.6 1.6,1.8 0,0 -0.5,0.5 -0.5,0.5 z m 2.8,-3.8 c -2,-0.3 -2,-2.6 -2.3,-2.9 -1.4,-1.8 -3.3,-0.3 -4.8,-0.3 -0.6,-1.8 0.3,-1.8 0.3,-2.9 0.9,0 1.8,-0.6 2.6,0 1.4,-0.6 2.2,0.9 3.6,0.9 0.3,0.6 0.9,2.1 1.2,2.3 0,1.1 -0.3,1.4 -0.6,2.9 z m 1.5,-6.2 c -2.1,0 -0.9,-4.1 -5.1,-4.1 -0.8,0 -1.4,1.5 -2.5,1.8 0,-0.3 0.3,-2.1 0.3,-2.1 0,-0.6 0.3,-1.8 1.4,-2.3 2.2,0 1.6,0.9 3.3,1.5 0.9,0.3 1.5,0.9 2.6,0.9 l 0,4.3 z m 4.1,13.2 c 0,-1.4 -1.8,-2.3 -2.9,-4.7 l 1.2,-2.1 c 0.9,0.6 2.1,1.5 2.1,2.9 0,0 -0.3,0.6 0,1.2 0,0.3 0.6,0.3 0.6,0.9 -0.7,1 -0.7,1 -1,1.8 z m 2,-5.6 -1.8,-2.6 c 0.6,-0.9 0.6,-2 1.5,-3.5 0.3,0 1.2,2 1.2,2.3 0,1.8 0,2.4 -0.9,3.8 z"
         id="path15"
         inkscape:connector-curvature="0"
         style="fill:#ff6200" /><path
         class="st1"
         d="m 326.3,96.3 c -0.6,0 -1.5,1.7 -1.5,2.3 0,2.3 0.6,5.6 1.5,7.9 l 2.3,0 c 0,-2.6 0.3,-5.6 0.3,-7.9 -0.3,0 0.3,0.6 -2.6,-2.3 z"
         id="path17"
         inkscape:connector-curvature="0"
         style="fill:#ff6200" /><path
         class="st1"
         d="m 333.1,97.4 c -0.6,0 -1.9,0.9 -1.9,1.5 0,1.2 -0.5,7.6 -0.5,7.6 l 1.9,0 c 0.9,-2.6 2.6,-6.1 2.6,-7.6 -0.1,-1.2 -1,-1.5 -2.1,-1.5 z"
         id="path19"
         inkscape:connector-curvature="0"
         style="fill:#ff6200" /><path
         class="st1"
         d="m 335.4,19 0.9,0 c 0.9,-0.9 1.5,0 2.1,-0.9 0.6,-1.5 0.6,-4.1 -0.6,-5.4 -0.6,-1.2 -2,-1.8 -3.5,-2.9 l -2,1.1 c -1.1,0.6 -1.6,1.8 -1.6,3.1 1.8,0.9 3.8,3.2 4.7,5 z"
         id="path21"
         inkscape:connector-curvature="0"
         style="fill:#ff6200" /><path
         class="st1"
         d="m 318.7,17.2 c -0.6,-0.6 -2.3,0.3 -3.2,0.6 -1.2,0.3 -2,1.2 -2,2 l 3.2,0 c 0.2,-0.8 1.4,-2 2,-2.6 z"
         id="path23"
         inkscape:connector-curvature="0"
         style="fill:#ff6200" /><path
         class="st1"
         d="m 310.5,38.7 c 0,0.6 0,1.2 0.9,1.8 0.9,-0.9 2.3,-1.2 2.6,-1.2 -0.6,-1.2 -2.1,0 -3.5,-0.6 z"
         id="path25"
         inkscape:connector-curvature="0"
         style="fill:#ff6200" /><path
         class="st1"
         d="m 323.9,17.5 c 1.5,0 0.9,2 2.1,2.3 l 2.6,0 c 0,-0.9 -0.3,-0.9 -0.6,-0.9 -1.5,0 -1.5,-2.3 -2.6,-1.8 -0.6,0 -1.2,-0.6 -2,0 0,0.4 0,0.4 0.5,0.4 z"
         id="path27"
         inkscape:connector-curvature="0"
         style="fill:#ff6200" /><polygon
         class="st1"
         points="326.6,39.3 326.3,39.6 329.5,40.8 329.5,39.3 "
         id="polygon29"
         style="fill:#ff6200" /><path
         class="st1"
         d="m 307.8,22.2 c 0,1.2 0.9,1.7 1.8,1.7 0,1.2 0.9,1.4 1.2,1.7 0.9,0.6 1.2,0.6 2,0 0.9,0.6 1.2,-0.5 1.5,0 0,1.8 0,2.6 -0.3,4 -0.3,2.1 -2,1.8 -3.5,2.6 0,0.9 -0.9,2.3 0,3.2 0.9,-0.6 1.5,-0.9 2.9,-1.5 0,-0.9 0.9,-1.8 2,-2.3 0,-2.6 0.9,-5.1 0.9,-7.8 0,-0.6 -0.6,-1.2 -1.5,-1.7 l -6.4,0 c 0,0.1 -0.6,0.1 -0.6,0.1 z"
         id="path31"
         inkscape:connector-curvature="0"
         style="fill:#ff6200" /><path
         class="st1"
         d="m 306.7,17.5 c 1.2,-0.9 4.1,-2.9 5.6,-3.5 -0.3,-2.8 -3.5,-3.1 -5,-4.3 l -1.2,0 c -2.3,0.9 -2.8,3.2 -3.1,5.1 0.8,2.7 2.5,0.9 3.7,2.7 z"
         id="path33"
         inkscape:connector-curvature="0"
         style="fill:#ff6200" /><path
         class="st1"
         d="m 324.8,23.9 -0.6,0 c 0.6,2.3 0.6,4.8 0.6,7.5 1.2,0.3 2.3,0.9 2.3,2.6 1.2,0.6 2.3,0.9 3.5,1.8 0.5,-0.3 0.8,-1.2 1.1,-2 -1.1,-1.5 -3.7,-0.6 -3.7,-3.2 L 326.3,30 c 0,-1.7 0,-3.4 -0.3,-4.6 l 0.3,-0.2 c 0,0.2 0.3,0.5 0.9,1.1 1.2,0 2.3,0.3 3.5,-0.6 0.5,-0.3 0.5,-1.7 1.1,-1.7 0.5,0 1.1,0 1.4,-0.6 0,0 0.6,0 0,-0.3 L 327,22.2 c -0.7,0.9 -2.2,0.9 -2.2,1.7 z"
         id="path35"
         inkscape:connector-curvature="0"
         style="fill:#ff6200" /></g></g></svg>