<svg xmlns="http://www.w3.org/2000/svg" width="32" height="32" viewBox="0 0 32 32"><title>migam</title><path d="M13.95,15.389a3.187,3.187,0,0,0,1.487.018c1.948-.6,1.569-3.813,1.316-5.168a4.237,4.237,0,0,0-1.889-2.334l.09-.05c.117-.061.212-.108.313-.159.36-.18.769-.385,2.375-1.242l.028-.015a2.127,2.127,0,0,0,1.1-1.878,2.449,2.449,0,0,0-1.228-2.074,2.329,2.329,0,0,0-2-.138,2.368,2.368,0,0,0-.377-1.084l-.027-.039A2.446,2.446,0,0,0,11.889.752l-.03.017L8.112,2.978l.472-.757c.013-.021.023-.037.034-.059s.374-.709.852-.548a.791.791,0,0,0,.5-1.5,2.339,2.339,0,0,0-2.751,1.3L4.238,6.206a.737.737,0,0,0-.078.166l-.574.879-.012.019a5.878,5.878,0,0,1-1.1,1.4L.458,9.7a.792.792,0,0,0,.72,1.41l2.066-1.056A.9.9,0,0,0,3.329,10a6.866,6.866,0,0,0,1.589-1.9l.676-1.035.012-.019a2.02,2.02,0,0,1,.155-.22l.813-1a1.525,1.525,0,0,1,.487-.394L7.1,5.411l5.543-3.269c.172-.089.87-.415,1.2,0a.737.737,0,0,1,.086.628,1.284,1.284,0,0,1-.429.619c-.057.032-.113.064-.166.1L8.48,6.148l0,0a.791.791,0,1,0,.761,1.388l4.854-2.661a2.235,2.235,0,0,0,.24-.139c.626-.351,1.491-.773,1.5-.778s.035-.018.053-.028a.837.837,0,0,1,.875-.069.864.864,0,0,1,.429.708.551.551,0,0,1-.307.5c-1.576.84-1.974,1.039-2.325,1.215l-.337.171-.025.013-1.3.725a.792.792,0,0,0,.034,1.4c.881.436,2.16,1.352,2.269,1.938.358,1.917.117,3.241-.215,3.362a1.764,1.764,0,0,1-1.034-.2c-.011-.121-.024-.323-.035-.493a13.52,13.52,0,0,0-.2-1.845c-.268-1.142-2.321-1.915-2.924-1.951a.558.558,0,0,0-.071,0l-.143,0A3.008,3.008,0,0,0,8.9,9.89a3.937,3.937,0,0,0-1.559,2.276,1.562,1.562,0,0,0,.3,1.344c.837,1.009,3.27,1.017,3.849.929.47-.072.779.086.872.444a.875.875,0,0,1-.614,1.035,11.009,11.009,0,0,1-4.891.1l-.6-.157c-1.656-.437-3.22-.849-4.265-.451A16.428,16.428,0,0,0,.259,16.456a.791.791,0,0,0,1.018,1.211c.172-.121,1.1-.678,1.3-.786a8.712,8.712,0,0,1,3.276.511l.615.161.013,0A12.371,12.371,0,0,0,12.3,17.4,2.454,2.454,0,0,0,13.95,15.389Zm-2.238-2.551a3.1,3.1,0,0,0-.46.036,4.88,4.88,0,0,1-2.366-.351,2.414,2.414,0,0,1,.78-1.248,1.518,1.518,0,0,1,.927-.286l.115,0a3.775,3.775,0,0,1,1.474.779,10.805,10.805,0,0,1,.124,1.141A2.494,2.494,0,0,0,11.712,12.838Zm19.079,7.887L28.726,21.78a.659.659,0,0,0-.085.051,6.86,6.86,0,0,0-1.589,1.9l-.676,1.036-.012.019a2.122,2.122,0,0,1-.155.22l-.814,1a1.485,1.485,0,0,1-.486.394l-.042.023-5.544,3.269c-.171.09-.869.416-1.2,0a.74.74,0,0,1-.086-.628,1.293,1.293,0,0,1,.429-.618l.167-.1,4.855-2.663,0,0a.791.791,0,0,0-.761-1.388l-4.854,2.661a1.951,1.951,0,0,0-.241.139c-.625.35-1.49.772-1.5.777s-.036.018-.053.028a.837.837,0,0,1-.875.07.866.866,0,0,1-.429-.708.551.551,0,0,1,.307-.5c1.576-.841,1.974-1.04,2.325-1.216.108-.054.209-.105.337-.171l.024-.013,1.3-.724a.791.791,0,0,0-.031-1.4c-.874-.438-2.152-1.362-2.276-1.957-.344-1.648-.167-3.206.219-3.345a1.758,1.758,0,0,1,1.034.2c.01.121.024.322.035.493a13.71,13.71,0,0,0,.2,1.845c.269,1.141,2.322,1.914,2.924,1.951h.072l.143,0a3.008,3.008,0,0,0,1.674-.484,3.937,3.937,0,0,0,1.559-2.276,1.563,1.563,0,0,0-.3-1.344c-.838-1.009-3.271-1.016-3.849-.928-.47.071-.779-.086-.872-.444a.874.874,0,0,1,.614-1.035,11.009,11.009,0,0,1,4.891-.1l.6.156c1.656.437,3.22.85,4.265.452a16.634,16.634,0,0,0,1.735-1.046.792.792,0,0,0-1.018-1.212c-.172.121-1.1.679-1.3.787a8.728,8.728,0,0,1-3.275-.511c-.206-.055-.412-.109-.615-.161l-.014,0a12.369,12.369,0,0,0-5.814.153,2.454,2.454,0,0,0-1.652,2.013,3.2,3.2,0,0,0-1.487-.018c-2.187.67-1.408,4.725-1.312,5.185a4.352,4.352,0,0,0,1.891,2.315l-.1.053-.312.158c-.361.181-.769.385-2.377,1.242L14.3,25.4a2.125,2.125,0,0,0-1.1,1.877,2.448,2.448,0,0,0,1.228,2.074,2.327,2.327,0,0,0,2,.138,2.366,2.366,0,0,0,.378,1.084.383.383,0,0,0,.027.039,2.134,2.134,0,0,0,1.772.868,3.154,3.154,0,0,0,1.475-.394l.03-.017,3.746-2.209-.471.758c-.013.021-.023.037-.034.059s-.375.708-.852.547a.791.791,0,1,0-.5,1.5,2.069,2.069,0,0,0,.671.114,2.523,2.523,0,0,0,2.08-1.412l2.985-4.793a.79.79,0,0,0,.078-.167l.573-.878.013-.019a5.884,5.884,0,0,1,1.1-1.4l2.014-1.029a.791.791,0,1,0-.721-1.409ZM20.718,18.959a4.894,4.894,0,0,1,2.366.351,2.414,2.414,0,0,1-.78,1.248,1.513,1.513,0,0,1-.927.286l-.115,0a3.775,3.775,0,0,1-1.474-.779,10.783,10.783,0,0,1-.124-1.14A2.716,2.716,0,0,0,20.718,18.959Z" fill="#ff6200"/></svg>