<?xml version="1.0" encoding="utf-8"?>
<!-- Generator: Adobe Illustrator 15.1.0, SVG Export Plug-In . SVG Version: 6.00 Build 0)  -->
<!DOCTYPE svg PUBLIC "-//W3C//DTD SVG 1.1//EN" "http://www.w3.org/Graphics/SVG/1.1/DTD/svg11.dtd">
<svg version="1.1" id="Layer_1" xmlns="http://www.w3.org/2000/svg" xmlns:xlink="http://www.w3.org/1999/xlink" x="0px" y="0px"
	 width="283.464px" height="283.465px" viewBox="0 0 283.464 283.465" enable-background="new 0 0 283.464 283.465"
	 xml:space="preserve">
<g>
	
		<line fill="none" stroke="#666666" stroke-width="14" stroke-linecap="round" stroke-linejoin="round" stroke-miterlimit="10" x1="1469.036" y1="2509.18" x2="1491.192" y2="2509.18"/>
	
		<line fill="none" stroke="#666666" stroke-width="14" stroke-linecap="round" stroke-linejoin="round" stroke-miterlimit="10" x1="1469.036" y1="2601.037" x2="1512.772" y2="2601.037"/>
	
		<line fill="none" stroke="#666666" stroke-width="14" stroke-linecap="round" stroke-linejoin="round" stroke-miterlimit="10" x1="1490.904" y1="2510.395" x2="1490.904" y2="2599.951"/>
	<path fill="#666666" d="M1500.334,2469.753c1.848,5.208-0.876,10.929-6.084,12.777c-5.209,1.847-10.929-0.876-12.777-6.086
		c-1.849-5.208,0.876-10.927,6.085-12.775C1492.766,2461.82,1498.486,2464.545,1500.334,2469.753"/>
</g>
<path fill="none" stroke="#FF6200" stroke-width="14" stroke-linecap="round" stroke-miterlimit="10" d="M220.931,265.5
	c7.044-4.787,12.607-9.236,12.607-9.236c7.072-5.181,8.607-15.115,3.426-22.19l-20.952-28.602
	c-5.181-7.074-15.114-8.607-22.189-3.426l-19.181,13.242c-5.577,3.852-13.207,2.562-17.211-2.905L76.765,102.255
	c-6.565-8.964-4.808-21.525,3.969-28.337l12.264-9.521c7.075-5.183,8.607-15.117,3.428-22.19L75.473,13.604
	c-5.181-7.073-15.114-8.607-22.189-3.427l-11.808,8.65c0,0-52.92,30.154,41.896,159.601
	C178.187,307.872,209.337,273.378,220.931,265.5z"/>
</svg>
